<svg id="Layer_1" data-name="Layer 1" xmlns="http://www.w3.org/2000/svg" viewBox="0 0 501 501"><defs><style>.cls-1,.cls-2{stroke:#231f20;stroke-miterlimit:10;}.cls-2,.cls-3,.cls-7{fill:#fff;}.cls-3{font-size:16px;font-family:SFProDisplay-Light, SF Pro Display;font-weight:300;}.cls-4{letter-spacing:-0.01em;}.cls-5{letter-spacing:-0.01em;}.cls-6{letter-spacing:0em;}.cls-7{font-size:48px;font-family:SFProDisplay-Semibold, SF Pro Display;font-weight:600;}</style></defs><circle class="cls-1" cx="250.5" cy="250.5" r="250"/><circle class="cls-2" cx="250.5" cy="250.5" r="12.5"/><text class="cls-3" transform="translate(238.4 16.32) rotate(-0.64)">60</text><text class="cls-3" transform="translate(220.95 18.05) rotate(-6.64)">|</text><text class="cls-3" transform="translate(196.86 22.38) rotate(-12.64)">|</text><text class="cls-3" transform="translate(173.34 29.24) rotate(-18.64)">|</text><text class="cls-3" transform="matrix(0.91, -0.42, 0.42, 0.91, 150.53, 38.53)">|</text><text class="cls-3" transform="matrix(0.86, -0.51, 0.51, 0.86, 123.07, 53.63)">55</text><text class="cls-3" transform="matrix(0.8, -0.6, 0.6, 0.8, 108.68, 63.93)">|</text><text class="cls-3" transform="matrix(0.74, -0.68, 0.68, 0.74, 89.97, 79.77)">|</text><text class="cls-3" transform="matrix(0.66, -0.75, 0.75, 0.66, 73.04, 97.48)">|</text><text class="cls-3" transform="translate(57.99 116.93) rotate(-54.64)">|</text><text class="cls-3" transform="translate(41.6 143.79) rotate(-60.64)">50</text><text id="_" data-name="|" class="cls-3" transform="translate(34.46 159.79) rotate(-66.64)">|</text><text class="cls-3" transform="translate(26.14 182.91) rotate(-72.64)">|</text><text class="cls-3" transform="translate(20.32 206.71) rotate(-78.64)">|</text><text class="cls-3" transform="translate(16.96 231.04) rotate(-84.64)">|</text><text class="cls-3" transform="translate(16.32 262.49) rotate(-90.64)">45</text><text class="cls-3" transform="translate(18.05 280.04) rotate(-96.64)">|</text><text class="cls-3" transform="translate(22.38 304.14) rotate(-102.64)">|</text><text class="cls-3" transform="translate(29.24 327.66) rotate(-108.64)">|</text><text class="cls-3" transform="matrix(-0.42, -0.91, 0.91, -0.42, 38.53, 350.47)">|</text><text class="cls-3" transform="matrix(-0.51, -0.86, 0.86, -0.51, 53.76, 378.15)">40</text><text class="cls-3" transform="matrix(-0.6, -0.8, 0.8, -0.6, 63.93, 392.32)">|</text><text class="cls-3" transform="matrix(-0.68, -0.74, 0.74, -0.68, 79.77, 411.03)">|</text><text class="cls-3" transform="matrix(-0.75, -0.66, 0.66, -0.75, 97.48, 427.96)">|</text><text class="cls-3" transform="translate(116.93 443.01) rotate(-144.64)">|</text><text class="cls-3" transform="translate(143.66 459.33) rotate(-150.64)">35</text><text class="cls-3" transform="translate(159.79 466.54) rotate(-156.64)">|</text><text class="cls-3" transform="translate(182.91 474.86) rotate(-162.64)">|</text><text class="cls-3" transform="translate(206.71 480.67) rotate(-168.64)">|</text><text class="cls-3" transform="translate(231.04 484.04) rotate(-174.64)">|</text><text class="cls-3" transform="translate(262.51 484.68) rotate(179.36)">30</text><text class="cls-3" transform="translate(280.05 482.95) rotate(173.36)">|</text><text class="cls-3" transform="translate(304.14 478.62) rotate(167.36)">|</text><text class="cls-3" transform="translate(327.66 471.76) rotate(161.36)">|</text><text class="cls-3" transform="matrix(-0.91, 0.42, -0.42, -0.91, 350.47, 462.47)">|</text><text class="cls-3" transform="matrix(-0.86, 0.51, -0.51, -0.86, 377.76, 447.47)"><tspan class="cls-4">2</tspan><tspan x="8.88" y="0">5</tspan></text><text class="cls-3" transform="matrix(-0.8, 0.6, -0.6, -0.8, 392.32, 437.07)">|</text><text class="cls-3" transform="matrix(-0.74, 0.68, -0.68, -0.74, 411.03, 421.23)">|</text><text class="cls-3" transform="matrix(-0.66, 0.75, -0.75, -0.66, 427.96, 403.52)">|</text><text class="cls-3" transform="translate(443.01 384.07) rotate(125.36)">|</text><text class="cls-3" transform="translate(459.34 357.32) rotate(119.36)">20</text><text class="cls-3" transform="translate(466.54 341.21) rotate(113.36)">|</text><text class="cls-3" transform="translate(474.86 318.09) rotate(107.36)">|</text><text id="_2" data-name="|" class="cls-3" transform="translate(480.67 294.29) rotate(101.36)">|</text><text class="cls-3" transform="translate(484.04 269.96) rotate(95.36)">|</text><text class="cls-3" transform="translate(484.69 239.92) rotate(89.36)"><tspan class="cls-5">1</tspan><tspan x="6.65" y="0">5</tspan></text><text class="cls-3" transform="translate(482.95 220.95) rotate(83.36)">|</text><text class="cls-3" transform="translate(478.62 196.86) rotate(77.36)">|</text><text class="cls-3" transform="translate(471.76 173.34) rotate(71.36)">|</text><text class="cls-3" transform="matrix(0.42, 0.91, -0.91, 0.42, 462.47, 150.53)">|</text><text class="cls-3" transform="matrix(0.51, 0.86, -0.86, 0.51, 447.94, 124.04)"><tspan class="cls-6">1</tspan><tspan x="6.72" y="0">0</tspan></text><text class="cls-3" transform="matrix(0.6, 0.8, -0.8, 0.6, 437.07, 108.68)">|</text><text class="cls-3" transform="matrix(0.68, 0.74, -0.74, 0.68, 421.23, 89.97)">|</text><text class="cls-3" transform="matrix(0.75, 0.66, -0.66, 0.75, 403.52, 73.04)">|</text><text class="cls-3" transform="translate(384.07 57.99) rotate(35.36)">|</text><text class="cls-3" transform="translate(361.37 43.94) rotate(29.36)">5</text><text class="cls-3" transform="translate(341.21 34.46) rotate(23.36)">|</text><text class="cls-3" transform="translate(318.09 26.14) rotate(17.36)">|</text><text class="cls-3" transform="translate(294.29 20.32) rotate(11.36)">|</text><text class="cls-3" transform="translate(269.96 16.96) rotate(5.36)">|</text><text class="cls-7" transform="translate(225.15 70.6)">12</text><text class="cls-7" transform="translate(123.71 88.17) rotate(-0.64)">11</text><text class="cls-7" transform="translate(57.38 165.95) rotate(-0.64)">10</text><text class="cls-7" transform="translate(31.19 267.79) rotate(-0.64)">9</text><text class="cls-7" transform="translate(59.44 370.11) rotate(-0.64)">8</text><text class="cls-7" transform="translate(132.6 443.42) rotate(-0.64)">7</text><text class="cls-7" transform="translate(235.55 469.76) rotate(-0.64)">6</text><text class="cls-7" transform="translate(355.27 444.62) rotate(-0.64)">5</text><text class="cls-7" transform="translate(411.22 370.09) rotate(-0.64)">4</text><text class="cls-7" transform="translate(437.35 269.47) rotate(-0.64)">3</text><text class="cls-7" transform="translate(412.25 165.8) rotate(-0.64)">2</text><text class="cls-7" transform="translate(354.2 87.9)">1</text></svg>